<?xml version="1.0" encoding="UTF-8"?>
<svg width="407px" height="396px" viewBox="0 0 407 396" version="1.1" xmlns="http://www.w3.org/2000/svg" xmlns:xlink="http://www.w3.org/1999/xlink">
    <!-- Generator: Sketch 50.2 (55047) - http://www.bohemiancoding.com/sketch -->
    <title>Group</title>
    <desc>Created with Sketch.</desc>
    <defs></defs>
    <g id="Page-1" stroke="none" stroke-width="1" fill="none" fill-rule="evenodd">
        <g id="home" transform="translate(-522.000000, -305.000000)" fill="#000000">
            <g id="Group" transform="translate(522.000000, 305.000000)">
                <path d="M1.832,54 L1.832,2.736 L21.056,2.736 C38.768,2.736 50.576,12.96 50.576,28.368 C50.576,43.776 38.768,54 21.056,54 L1.832,54 Z M38.552,28.368 C38.552,18.432 31.496,12.168 21.056,12.168 L13.64,12.168 L13.64,44.568 L21.056,44.568 C31.496,44.568 38.552,38.304 38.552,28.368 Z" id="Combined-Shape"></path>
                <path d="M115.128,32.472 L115.128,2.736 L127.296,2.736 L127.296,32.76 C127.296,46.368 117.864,55.8 104.328,55.8 C90.72,55.8 81.288,46.368 81.288,32.76 L81.288,2.736 L93.456,2.736 L93.456,32.472 C93.456,39.096 97.416,45.288 104.328,45.432 C110.808,45.432 115.128,40.032 115.128,32.472 Z" id="Path"></path>
                <path d="M202.36,38.016 C202.36,48.528 193.648,55.8 180.616,55.8 C167.584,55.8 158.224,47.952 158.224,37.152 L169.096,37.152 C169.096,42.696 174.064,46.656 180.976,46.656 C186.88,46.656 190.552,43.704 190.552,39.6 C190.552,34.776 185.008,34.056 178.672,33.264 C168.52,31.968 158.728,29.808 158.728,17.856 C158.728,7.848 167.296,0.936 179.68,0.936 C192.136,0.936 201.136,8.424 201.136,18.72 L190.624,18.72 C190.696,13.68 186.16,10.08 179.968,10.08 C174.28,10.08 170.536,12.744 170.536,16.488 C170.536,21.312 175.648,22.032 182.128,22.896 C192.064,24.048 202.36,26.208 202.36,38.016 Z" id="Path"></path>
                <polygon id="Path" points="243.224 54 243.224 12.816 227.816 12.816 227.816 2.736 270.728 2.736 270.728 12.816 255.32 12.816 255.32 54"></polygon>
                <polygon id="Path" points="299.784 2.736 311.88 2.736 311.88 54 299.784 54"></polygon>
                <polygon id="Path" points="358.864 2.736 379.456 39.384 379.456 2.736 390.976 2.736 390.976 54 377.656 54 356.992 17.424 356.992 54 345.544 54 345.544 2.736"></polygon>
                <path d="M287.964,387.504 L285.156,396 L272.412,396 L289.62,344.736 L307.188,344.736 L324.324,396 L311.652,396 L308.844,387.504 L287.964,387.504 Z M298.404,355.104 L290.34,378.864 L306.468,378.864 L298.404,355.104 Z" id="Combined-Shape"></path>
                <polygon id="Path" points="211.608 359.352 211.608 396 199.8 396 199.8 344.736 215.712 344.736 230.256 382.392 244.656 344.736 260.784 344.736 260.784 396 248.976 396 248.976 359.352 234.792 396 225.72 396"></polygon>
                <polygon id="Path" points="153.756 344.736 163.98 386.064 174.78 344.736 187.092 344.736 173.124 396 155.7 396 146.988 359.784 138.276 396 120.78 396 106.812 344.736 119.124 344.736 130.068 386.064 140.364 344.736"></polygon>
                <polygon id="Path" points="71.496 374.04 71.496 386.28 96.552 386.28 96.552 396 59.832 396 59.832 344.736 95.832 344.736 95.832 354.456 71.496 354.456 71.496 365.4 92.952 365.4 92.952 374.04"></polygon>
                <path d="M34.686,94.472 L34.686,64.736 L46.854,64.736 L46.854,94.76 C46.854,108.368 37.422,117.8 23.886,117.8 C10.278,117.8 0.846,108.368 0.846,94.76 L0.846,64.736 L13.014,64.736 L13.014,94.472 C13.014,101.096 16.974,107.288 23.886,107.432 C30.366,107.432 34.686,102.032 34.686,94.472 Z" id="USTIN"></path>
                <path d="M46.602,170.016 C46.602,180.528 37.89,187.8 24.858,187.8 C11.826,187.8 2.466,179.952 2.466,169.152 L13.338,169.152 C13.338,174.696 18.306,178.656 25.218,178.656 C31.122,178.656 34.794,175.704 34.794,171.6 C34.794,166.776 29.25,166.056 22.914,165.264 C12.762,163.968 2.97,161.808 2.97,149.856 C2.97,139.848 11.538,132.936 23.922,132.936 C36.378,132.936 45.378,140.424 45.378,150.72 L34.866,150.72 C34.938,145.68 30.402,142.08 24.21,142.08 C18.522,142.08 14.778,144.744 14.778,148.488 C14.778,153.312 19.89,154.032 26.37,154.896 C36.306,156.048 46.602,158.208 46.602,170.016 Z" id="Path"></path>
                <polygon id="Path" points="17.766 256 17.766 214.816 2.358 214.816 2.358 204.736 45.27 204.736 45.27 214.816 29.862 214.816 29.862 256"></polygon>
                <polygon id="Path" points="17.802 274.736 29.898 274.736 29.898 326 17.802 326"></polygon>
                <polygon id="Path" points="14.49 344.736 35.082 381.384 35.082 344.736 46.602 344.736 46.602 396 33.282 396 12.618 359.424 12.618 396 1.17 396 1.17 344.736"></polygon>
                <path d="M351.346,317.504 L348.538,326 L335.794,326 L353.002,274.736 L370.57,274.736 L387.706,326 L375.034,326 L372.226,317.504 L351.346,317.504 Z M361.786,285.104 L353.722,308.864 L369.85,308.864 L361.786,285.104 Z" id="Combined-Shape"></path>
                <polygon id="Path" points="373.32 134.736 383.544 176.064 394.344 134.736 406.656 134.736 392.688 186 375.264 186 366.552 149.784 357.84 186 340.344 186 326.376 134.736 338.688 134.736 349.632 176.064 359.928 134.736"></polygon>
                <polygon id="Path" points="343.066 219.352 343.066 256 331.258 256 331.258 204.736 347.17 204.736 361.714 242.392 376.114 204.736 392.242 204.736 392.242 256 380.434 256 380.434 219.352 366.25 256 357.178 256"></polygon>
                <polygon id="Path" points="352.39 344.736 372.982 381.384 372.982 344.736 384.502 344.736 384.502 396 371.182 396 350.518 359.424 350.518 396 339.07 396 339.07 344.736"></polygon>
                <polygon id="Path" points="356.278 94.04 356.278 106.28 381.334 106.28 381.334 116 344.614 116 344.614 64.736 380.614 64.736 380.614 74.456 356.278 74.456 356.278 85.4 377.734 85.4 377.734 94.04"></polygon>
            </g>
        </g>
    </g>
</svg>